# xmcd
#
# Track frame offsets:
#	150
#	12844
#	24261
#	33439
#	46929
#	59152
#	68725
#	79989
#	89997
#	100646
#	110382
#	122077
#	132854
#	141654
#	150952
#	163053
#	174580
#	186082
#	196581
#	206871
#	214384
#	228969
#	240442
#	250735
#	261776
#
# Disc length: 3614 seconds
# Revision: 6
# Processed by: cddbd v1.5.2PL0 Copyright (c) Steve Scherf et al.
# Submitted via: dBpowerAMP V12.0
#
DISCID=5e0e1c19
DTITLE=Various Artist - The Sky Is Crying - the Fire Records Story 1957-1932 ( CD 1-3 )
DYEAR=2014
DGENRE=R&B
TTITLE0=Elmore James/The Sky Is Crying
TTITLE1=Buster Brown/The Madison Shuffle
TTITLE2=Johnny Acey/Please Don't Go
TTITLE3=Earl Lewis and the Channels/The Girl Next Door
TTITLE4=Mary Ann Fisher/Wild as You Can Be
TTITLE5=Vinny and Kenny/School Time
TTITLE6=Rainbows/Mary Lee
TTITLE7=Tarheel Slim and Little Ann/Can't Stay Away - Part 1
TTITLE8=Lightnin' Hopkins/Glory Be
TTITLE9=Bobby Marchan/Snoopin' and Accusin'
TTITLE10=Arthur 'Big Boy' Crudup/Mean Old Frisco
TTITLE11=Paul Perryman/Look at My Baby
TTITLE12=Gay Poppers/You Got Me Up Tight
TTITLE13=Tellers/I Wanna Run to You
TTITLE14=Wild Jimmy Spruill/Kansas City March
TTITLE15=Upsetters/Jaywalking
TTITLE16=Billy Lewis/Heart Trouble
TTITLE17=Mighty Joe Young/Why Baby
TTITLE18=Buster Brown/I Get the Blues When It Rains
TTITLE19=Rockin' Bradley/Lookout
TTITLE20=Elmore James/Stranger Blues
TTITLE21=Tarheel Slim and Little Ann/Anything for You
TTITLE22=Riff Ruffin/All My Life
TTITLE23=Arthur 'Big Boy' Crudup/Dig Myself a Hole
TTITLE24=Bobby Marchan/There's Something on Your Mind - Part 1
EXTD=
EXTT0=
EXTT1=
EXTT2=
EXTT3=
EXTT4=
EXTT5=
EXTT6=
EXTT7=
EXTT8=
EXTT9=
EXTT10=
EXTT11=
EXTT12=
EXTT13=
EXTT14=
EXTT15=
EXTT16=
EXTT17=
EXTT18=
EXTT19=
EXTT20=
EXTT21=
EXTT22=
EXTT23=
EXTT24=
PLAYORDER=
